<?xml version="1.0" encoding="UTF-8" standalone="no"?>
<!DOCTYPE svg PUBLIC "-//W3C//DTD SVG 1.1//EN"
 "http://www.w3.org/Graphics/SVG/1.1/DTD/svg11.dtd">
<!-- Generated by graphviz version 2.40.1 (20161225.0304)
 -->
<!-- Title: G Pages: 1 -->
<svg width="509pt" height="330pt"
 viewBox="0.00 0.00 508.98 329.89" xmlns="http://www.w3.org/2000/svg" xmlns:xlink="http://www.w3.org/1999/xlink">
<g id="graph0" class="graph" transform="scale(1 1) rotate(0) translate(4 325.8921)">
<title>G</title>
<polygon fill="#ffffff" stroke="transparent" points="-4,4 -4,-325.8921 504.979,-325.8921 504.979,4 -4,4"/>
<!-- index.js -->
<g id="node1" class="node">
<title>index.js</title>
<path fill="#e5e5e5" stroke="#000000" d="M51.7101,-153.7929C51.7101,-153.7929 8.2303,-153.7929 8.2303,-153.7929 4.13,-153.7929 .0298,-149.6926 .0298,-145.5924 .0298,-145.5924 .0298,-137.3918 .0298,-137.3918 .0298,-133.2916 4.13,-129.1913 8.2303,-129.1913 8.2303,-129.1913 51.7101,-129.1913 51.7101,-129.1913 55.8104,-129.1913 59.9106,-133.2916 59.9106,-137.3918 59.9106,-137.3918 59.9106,-145.5924 59.9106,-145.5924 59.9106,-149.6926 55.8104,-153.7929 51.7101,-153.7929"/>
<text text-anchor="middle" x="29.9702" y="-137.2921" font-family="Times,serif" font-size="14.00" fill="#000000">index.js</text>
</g>
<!-- lib/cmd/cov.js -->
<g id="node2" class="node">
<title>lib/cmd/cov.js</title>
<path fill="#e5e5e5" stroke="#000000" d="M190.3164,-321.7929C190.3164,-321.7929 111.2818,-321.7929 111.2818,-321.7929 107.1816,-321.7929 103.0813,-317.6926 103.0813,-313.5924 103.0813,-313.5924 103.0813,-305.3918 103.0813,-305.3918 103.0813,-301.2916 107.1816,-297.1913 111.2818,-297.1913 111.2818,-297.1913 190.3164,-297.1913 190.3164,-297.1913 194.4166,-297.1913 198.5169,-301.2916 198.5169,-305.3918 198.5169,-305.3918 198.5169,-313.5924 198.5169,-313.5924 198.5169,-317.6926 194.4166,-321.7929 190.3164,-321.7929"/>
<text text-anchor="middle" x="150.7991" y="-305.2921" font-family="Times,serif" font-size="14.00" fill="#000000">lib/cmd/cov.js</text>
</g>
<!-- index.js&#45;&gt;lib/cmd/cov.js -->
<g id="edge1" class="edge">
<title>index.js&#45;&gt;lib/cmd/cov.js</title>
<path fill="none" stroke="#000000" d="M34.0891,-154.0299C42.5981,-178.5268 64.0294,-233.572 95.9404,-270.4921 102.8177,-278.4489 111.6397,-285.6313 120.189,-291.6004"/>
<polygon fill="#000000" stroke="#000000" points="118.2956,-294.5444 128.5654,-297.1488 122.1613,-288.7086 118.2956,-294.5444"/>
</g>
<!-- lib/cmd/debug.js -->
<g id="node3" class="node">
<title>lib/cmd/debug.js</title>
<path fill="#e5e5e5" stroke="#000000" d="M197.3163,-187.7929C197.3163,-187.7929 104.2819,-187.7929 104.2819,-187.7929 100.1816,-187.7929 96.0813,-183.6926 96.0813,-179.5924 96.0813,-179.5924 96.0813,-171.3918 96.0813,-171.3918 96.0813,-167.2916 100.1816,-163.1913 104.2819,-163.1913 104.2819,-163.1913 197.3163,-163.1913 197.3163,-163.1913 201.4166,-163.1913 205.5169,-167.2916 205.5169,-171.3918 205.5169,-171.3918 205.5169,-179.5924 205.5169,-179.5924 205.5169,-183.6926 201.4166,-187.7929 197.3163,-187.7929"/>
<text text-anchor="middle" x="150.7991" y="-171.2921" font-family="Times,serif" font-size="14.00" fill="#000000">lib/cmd/debug.js</text>
</g>
<!-- index.js&#45;&gt;lib/cmd/debug.js -->
<g id="edge2" class="edge">
<title>index.js&#45;&gt;lib/cmd/debug.js</title>
<path fill="none" stroke="#000000" d="M60.1487,-149.984C71.2901,-153.1191 84.2799,-156.7743 96.8875,-160.3219"/>
<polygon fill="#000000" stroke="#000000" points="96.2998,-163.7924 106.874,-163.132 98.1959,-157.0541 96.2998,-163.7924"/>
</g>
<!-- lib/cmd/dev.js -->
<g id="node4" class="node">
<title>lib/cmd/dev.js</title>
<path fill="#e5e5e5" stroke="#000000" d="M341.477,-120.7929C341.477,-120.7929 262.4424,-120.7929 262.4424,-120.7929 258.3422,-120.7929 254.2419,-116.6926 254.2419,-112.5924 254.2419,-112.5924 254.2419,-104.3918 254.2419,-104.3918 254.2419,-100.2916 258.3422,-96.1913 262.4424,-96.1913 262.4424,-96.1913 341.477,-96.1913 341.477,-96.1913 345.5772,-96.1913 349.6775,-100.2916 349.6775,-104.3918 349.6775,-104.3918 349.6775,-112.5924 349.6775,-112.5924 349.6775,-116.6926 345.5772,-120.7929 341.477,-120.7929"/>
<text text-anchor="middle" x="301.9597" y="-104.2921" font-family="Times,serif" font-size="14.00" fill="#000000">lib/cmd/dev.js</text>
</g>
<!-- index.js&#45;&gt;lib/cmd/dev.js -->
<g id="edge3" class="edge">
<title>index.js&#45;&gt;lib/cmd/dev.js</title>
<path fill="none" stroke="#000000" d="M60.1171,-137.8344C104.2575,-132.479 187.332,-122.3997 243.6548,-115.5661"/>
<polygon fill="#000000" stroke="#000000" points="244.3392,-119.0089 253.8448,-114.3298 243.496,-112.0598 244.3392,-119.0089"/>
</g>
<!-- lib/cmd/pkgfiles.js -->
<g id="node5" class="node">
<title>lib/cmd/pkgfiles.js</title>
<path fill="#e5e5e5" stroke="#000000" d="M353.8636,-52.7929C353.8636,-52.7929 250.0558,-52.7929 250.0558,-52.7929 245.9555,-52.7929 241.8553,-48.6926 241.8553,-44.5924 241.8553,-44.5924 241.8553,-36.3918 241.8553,-36.3918 241.8553,-32.2916 245.9555,-28.1913 250.0558,-28.1913 250.0558,-28.1913 353.8636,-28.1913 353.8636,-28.1913 357.9639,-28.1913 362.0641,-32.2916 362.0641,-36.3918 362.0641,-36.3918 362.0641,-44.5924 362.0641,-44.5924 362.0641,-48.6926 357.9639,-52.7929 353.8636,-52.7929"/>
<text text-anchor="middle" x="301.9597" y="-36.2921" font-family="Times,serif" font-size="14.00" fill="#000000">lib/cmd/pkgfiles.js</text>
</g>
<!-- index.js&#45;&gt;lib/cmd/pkgfiles.js -->
<g id="edge4" class="edge">
<title>index.js&#45;&gt;lib/cmd/pkgfiles.js</title>
<path fill="none" stroke="#000000" d="M55.7312,-129.091C67.8223,-123.4482 82.4999,-116.8501 95.9404,-111.4921 148.8081,-90.4165 210.6861,-69.5923 252.7274,-56.0022"/>
<polygon fill="#000000" stroke="#000000" points="253.9938,-59.2715 262.4412,-52.8768 251.8498,-52.6079 253.9938,-59.2715"/>
</g>
<!-- lib/cmd/test.js -->
<g id="node6" class="node">
<title>lib/cmd/test.js</title>
<path fill="#e5e5e5" stroke="#000000" d="M341.2024,-254.7929C341.2024,-254.7929 262.717,-254.7929 262.717,-254.7929 258.6167,-254.7929 254.5165,-250.6926 254.5165,-246.5924 254.5165,-246.5924 254.5165,-238.3918 254.5165,-238.3918 254.5165,-234.2916 258.6167,-230.1913 262.717,-230.1913 262.717,-230.1913 341.2024,-230.1913 341.2024,-230.1913 345.3027,-230.1913 349.4029,-234.2916 349.4029,-238.3918 349.4029,-238.3918 349.4029,-246.5924 349.4029,-246.5924 349.4029,-250.6926 345.3027,-254.7929 341.2024,-254.7929"/>
<text text-anchor="middle" x="301.9597" y="-238.2921" font-family="Times,serif" font-size="14.00" fill="#000000">lib/cmd/test.js</text>
</g>
<!-- index.js&#45;&gt;lib/cmd/test.js -->
<g id="edge5" class="edge">
<title>index.js&#45;&gt;lib/cmd/test.js</title>
<path fill="none" stroke="#000000" d="M38.9293,-153.8546C50.383,-168.666 71.6616,-193.0378 95.9404,-205.4921 142.3378,-229.2926 201.4511,-238.0365 244.4472,-241.1251"/>
<polygon fill="#000000" stroke="#000000" points="244.2599,-244.6202 254.4624,-241.7638 244.7054,-237.6344 244.2599,-244.6202"/>
</g>
<!-- lib/command.js -->
<g id="node7" class="node">
<title>lib/command.js</title>
<path fill="#e5e5e5" stroke="#000000" d="M492.6376,-89.7929C492.6376,-89.7929 406.603,-89.7929 406.603,-89.7929 402.5028,-89.7929 398.4025,-85.6926 398.4025,-81.5924 398.4025,-81.5924 398.4025,-73.3918 398.4025,-73.3918 398.4025,-69.2916 402.5028,-65.1913 406.603,-65.1913 406.603,-65.1913 492.6376,-65.1913 492.6376,-65.1913 496.7378,-65.1913 500.8381,-69.2916 500.8381,-73.3918 500.8381,-73.3918 500.8381,-81.5924 500.8381,-81.5924 500.8381,-85.6926 496.7378,-89.7929 492.6376,-89.7929"/>
<text text-anchor="middle" x="449.6203" y="-73.2921" font-family="Times,serif" font-size="14.00" fill="#000000">lib/command.js</text>
</g>
<!-- index.js&#45;&gt;lib/command.js -->
<g id="edge6" class="edge">
<title>index.js&#45;&gt;lib/command.js</title>
<path fill="none" stroke="#000000" d="M37.6368,-129.1091C48.6268,-112.2964 70.3776,-82.3068 95.9404,-64.4921 152.6049,-25.0027 173.6751,-22.6835 241.6578,-10.4921 294.4178,-1.0306 311.5025,6.7316 362.2616,-10.4921 389.6376,-19.7814 415.1591,-41.4817 431.4615,-57.685"/>
<polygon fill="#000000" stroke="#000000" points="429.2105,-60.3907 438.6916,-65.1194 434.2288,-55.5103 429.2105,-60.3907"/>
</g>
<!-- lib/cmd/cov.js&#45;&gt;lib/cmd/test.js -->
<g id="edge7" class="edge">
<title>lib/cmd/cov.js&#45;&gt;lib/cmd/test.js</title>
<path fill="none" stroke="#000000" d="M178.877,-297.0469C203.0582,-286.3289 238.149,-270.7754 264.6807,-259.0156"/>
<polygon fill="#000000" stroke="#000000" points="266.3082,-262.1226 274.0322,-254.8706 263.4717,-255.7231 266.3082,-262.1226"/>
</g>
<!-- lib/cmd/debug.js&#45;&gt;lib/cmd/dev.js -->
<g id="edge8" class="edge">
<title>lib/cmd/debug.js&#45;&gt;lib/cmd/dev.js</title>
<path fill="none" stroke="#000000" d="M178.877,-163.0469C203.0582,-152.3289 238.149,-136.7754 264.6807,-125.0156"/>
<polygon fill="#000000" stroke="#000000" points="266.3082,-128.1226 274.0322,-120.8706 263.4717,-121.7231 266.3082,-128.1226"/>
</g>
<!-- lib/cmd/dev.js&#45;&gt;lib/command.js -->
<g id="edge9" class="edge">
<title>lib/cmd/dev.js&#45;&gt;lib/command.js</title>
<path fill="none" stroke="#000000" d="M349.9009,-98.4273C362.1272,-95.8605 375.4381,-93.066 388.2354,-90.3793"/>
<polygon fill="#000000" stroke="#000000" points="389.2903,-93.7342 398.3578,-88.2542 387.852,-86.8836 389.2903,-93.7342"/>
</g>
<!-- lib/cmd/pkgfiles.js&#45;&gt;lib/command.js -->
<g id="edge10" class="edge">
<title>lib/cmd/pkgfiles.js&#45;&gt;lib/command.js</title>
<path fill="none" stroke="#000000" d="M351.1285,-52.8126C363.764,-55.9787 377.4882,-59.4176 390.5674,-62.6949"/>
<polygon fill="#000000" stroke="#000000" points="389.8637,-66.1268 400.4146,-65.1624 391.5652,-59.3367 389.8637,-66.1268"/>
</g>
<!-- lib/cmd/test.js&#45;&gt;lib/command.js -->
<g id="edge11" class="edge">
<title>lib/cmd/test.js&#45;&gt;lib/command.js</title>
<path fill="none" stroke="#000000" d="M313.0582,-230.0903C338.3921,-201.7816 400.6704,-132.19 431.5951,-97.6339"/>
<polygon fill="#000000" stroke="#000000" points="434.3324,-99.8237 438.393,-90.0378 429.1161,-95.1556 434.3324,-99.8237"/>
</g>
</g>
</svg>
